<?xml version="1.0" standalone="no"?>
<!DOCTYPE svg PUBLIC "-//W3C//DTD SVG 20010904//EN"
 "http://www.w3.org/TR/2001/REC-SVG-20010904/DTD/svg10.dtd">
<svg version="1.0" xmlns="http://www.w3.org/2000/svg"
 width="386.000000pt" height="57.000000pt" viewBox="0 0 386.000000 57.000000"
 preserveAspectRatio="xMidYMid meet">

<g transform="translate(0.000000,57.000000) scale(0.100000,-0.100000)"
fill="#000000" stroke="none">
<path d="M339 556 c-45 -16 -100 -49 -123 -75 -29 -32 -33 -97 -7 -131 l21
-29 -42 -11 c-120 -30 -178 -81 -178 -156 0 -96 64 -148 180 -148 86 0 121 19
154 86 51 102 27 163 -55 139 -46 -14 -79 -57 -87 -113 l-5 -41 32 19 c20 11
39 34 48 57 16 38 45 63 63 52 19 -12 11 -80 -15 -118 -75 -109 -235 -95 -235
21 1 74 50 146 121 176 32 13 42 13 85 0 52 -16 74 -13 74 10 0 9 -18 16 -56
21 l-56 7 4 53 c7 87 75 165 143 165 25 0 25 -2 -23 -48 -77 -75 -91 -152 -28
-152 57 0 126 86 126 158 0 27 4 32 25 32 13 0 75 -26 137 -57 100 -51 120
-58 169 -57 67 1 137 36 195 95 45 46 41 59 -7 23 -56 -43 -110 -64 -167 -64
-44 0 -65 7 -120 39 -90 53 -141 66 -201 51 -33 -8 -55 -8 -75 -1 -35 14 -52
13 -97 -3z m121 -56 c0 -30 -27 -91 -52 -117 -21 -22 -62 -31 -72 -15 -9 15
31 88 68 120 43 37 56 40 56 12z"/>
<path d="M1853 556 c-60 -19 -101 -47 -166 -113 -115 -117 -186 -263 -174
-356 18 -133 225 -101 296 46 26 53 28 132 5 141 -28 11 -69 6 -93 -10 -26
-19 -60 -87 -61 -122 l0 -22 34 22 c18 12 42 40 52 62 15 32 25 41 44 41 23 0
25 -3 23 -39 -4 -68 -69 -144 -136 -160 -22 -5 -33 -1 -54 20 -22 23 -25 31
-20 73 10 85 78 213 168 315 46 52 104 86 146 86 l28 0 -31 -20 c-34 -22 -76
-78 -93 -123 -14 -36 1 -67 32 -67 61 0 127 86 127 164 l0 39 36 -6 c20 -3 82
-32 138 -64 92 -53 106 -58 158 -57 65 1 119 28 186 93 49 48 56 75 10 37 -53
-43 -129 -76 -177 -76 -34 0 -62 11 -134 52 -95 55 -88 54 -219 46 -13 0 -36
2 -53 5 -16 4 -49 0 -72 -7z m107 -66 c0 -30 -27 -91 -52 -117 -29 -31 -68
-31 -68 0 0 44 73 137 108 137 6 0 12 -9 12 -20z"/>
<path d="M3170 561 c-92 -29 -194 -115 -264 -219 -60 -91 -86 -160 -86 -231 0
-68 21 -95 83 -106 104 -20 237 108 237 227 0 33 -18 48 -56 48 -55 0 -103
-53 -118 -128 l-6 -34 33 20 c17 11 38 33 46 49 33 68 81 88 81 34 0 -42 -14
-73 -52 -116 -44 -51 -90 -70 -126 -53 -23 11 -27 20 -30 61 -2 27 4 70 13 96
35 105 165 279 237 317 15 8 39 14 54 14 26 0 26 -1 -18 -39 -81 -71 -103
-171 -39 -171 34 0 85 39 107 81 8 16 16 48 17 71 2 36 7 44 25 46 22 3 194
-81 213 -104 7 -9 -5 -34 -39 -87 -27 -42 -58 -96 -68 -121 -17 -42 -22 -46
-52 -46 -30 0 -33 2 -26 23 14 44 8 74 -16 82 -73 23 -210 -120 -210 -220 0
-28 5 -38 25 -47 44 -20 99 18 170 114 12 17 34 30 54 34 31 7 34 5 26 -12
-17 -40 -18 -119 -2 -133 22 -17 65 7 106 58 39 49 40 66 2 23 -32 -34 -61
-42 -61 -16 0 56 25 95 101 159 43 36 101 95 130 131 30 36 68 74 85 85 37 22
108 98 100 106 -3 3 -25 -12 -50 -32 l-46 -37 6 30 c6 27 3 32 -19 37 -29 8
-91 -21 -126 -59 -14 -14 -28 -26 -32 -26 -5 0 -43 21 -85 47 -73 45 -81 48
-138 45 -85 -4 -97 -4 -131 2 -16 3 -41 1 -55 -3z m568 -42 c5 -27 -23 -50
-68 -55 l-45 -6 43 42 c42 41 64 47 70 19z m-478 -41 c0 -69 -79 -153 -112
-120 -16 16 18 86 59 122 43 38 53 38 53 -2z m370 -128 c-65 -75 -143 -145
-148 -131 -4 12 17 54 64 126 34 55 38 57 117 63 14 2 5 -14 -33 -58z m-302
-121 c6 -53 -48 -76 -64 -26 -5 15 0 26 16 39 28 23 44 19 48 -13z m-29 -76
c7 -4 -42 -74 -59 -83 -55 -29 -64 3 -24 81 l25 51 27 -23 c15 -13 29 -25 31
-26z"/>
<path d="M1008 369 c-10 -5 -18 -21 -18 -34 0 -21 5 -25 29 -25 34 0 51 31 31
55 -14 17 -19 18 -42 4z"/>
<path d="M1156 286 c-9 -15 -43 -52 -74 -81 -31 -30 -52 -55 -47 -55 6 0 29
18 50 40 21 22 43 40 48 40 13 0 -1 -106 -20 -153 -17 -42 -44 -61 -74 -52
-19 6 -19 7 2 24 26 21 20 51 -10 51 -15 0 -18 5 -15 22 5 22 5 22 -13 -2 -38
-52 -73 -76 -73 -51 0 8 40 97 78 174 2 5 -15 7 -39 6 -27 -2 -44 1 -47 9 -6
18 -43 14 -77 -8 -38 -25 -42 -25 -49 5 -9 36 -36 31 -79 -13 -41 -42 -51 -69
-12 -32 40 37 32 4 -25 -110 l-50 -100 34 0 c34 0 36 3 74 83 41 87 113 167
152 167 26 0 25 -7 -2 -29 -25 -21 -19 -55 7 -44 13 4 9 -9 -14 -55 -35 -69
-37 -80 -17 -107 12 -16 17 -17 44 -6 16 7 40 23 53 37 l22 24 18 -30 c37 -60
136 -44 187 30 29 44 28 93 -4 147 -20 35 -23 47 -14 58 7 8 10 20 8 26 -2 6
-12 0 -22 -15z"/>
<path d="M405 184 c-48 -104 -54 -134 -29 -158 21 -21 36 -20 68 5 l26 21 19
-24 19 -23 37 20 c40 21 90 76 98 107 4 13 -9 4 -35 -24 -26 -27 -42 -38 -45
-30 -4 11 40 95 95 180 14 21 13 22 -21 22 -33 0 -37 -4 -76 -74 -22 -40 -52
-87 -66 -105 -65 -76 -75 -3 -15 107 l39 72 -35 0 c-34 0 -35 -1 -79 -96z"/>
<path d="M1945 264 c-49 -25 -84 -65 -117 -131 -34 -70 -33 -107 6 -124 37
-17 90 14 139 80 23 31 41 56 42 57 0 1 13 4 29 8 26 6 28 5 22 -16 -37 -120
-12 -158 80 -123 40 15 130 102 119 114 -3 2 -27 -17 -54 -42 -28 -26 -60 -47
-72 -47 -19 0 -21 4 -16 39 6 45 66 144 97 161 12 6 29 9 38 5 14 -5 12 -8 -8
-18 -32 -16 -39 -47 -11 -47 13 0 27 12 37 31 15 30 15 33 -5 52 -18 19 -24
19 -63 8 -27 -8 -59 -29 -85 -57 -28 -29 -51 -44 -68 -44 -24 0 -25 2 -19 42
6 33 4 44 -11 55 -24 17 -43 16 -80 -3z m77 -58 c-10 -38 -25 -43 -51 -17 -24
24 -19 44 12 59 31 14 49 -5 39 -42z m-53 -34 c33 -20 30 -34 -17 -84 -26 -29
-72 -38 -72 -15 0 15 47 117 54 117 3 0 19 -8 35 -18z"/>
<path d="M2402 260 c-36 -22 -106 -101 -126 -144 -19 -40 -21 -77 -4 -94 19
-19 63 -14 84 9 l18 20 8 -20 c17 -46 92 -14 144 61 34 49 26 60 -10 13 -24
-31 -56 -47 -56 -27 0 4 16 33 35 66 20 32 44 75 55 96 l19 38 -69 0 c-47 -1
-78 -6 -98 -18z m88 -7 c0 -27 -113 -193 -131 -193 -37 0 -3 91 60 159 33 36
71 54 71 34z"/>
<path d="M3651 250 c-45 -33 -109 -117 -121 -162 -19 -65 44 -104 91 -57 l20
20 6 -20 c4 -15 13 -21 36 -21 22 0 42 12 78 49 27 26 49 56 49 65 0 12 -9 6
-31 -19 -47 -53 -67 -46 -33 12 64 112 84 148 84 155 0 3 -32 6 -70 6 -61 -1
-76 -5 -109 -28z m99 -3 c0 -31 -108 -187 -130 -187 -15 0 -12 38 6 76 34 72
124 152 124 111z"/>
<path d="M1317 153 c-18 -17 -1 -23 67 -23 56 0 75 4 80 15 4 12 -7 15 -68 15
-40 0 -76 -3 -79 -7z"/>
</g>
</svg>
