<?xml version="1.0" standalone="no"?>
<!DOCTYPE svg PUBLIC "-//W3C//DTD SVG 20010904//EN"
 "http://www.w3.org/TR/2001/REC-SVG-20010904/DTD/svg10.dtd">
<svg version="1.0" xmlns="http://www.w3.org/2000/svg"
 width="1042.000000pt" height="156.000000pt" viewBox="0 0 1042.000000 156.000000"
 preserveAspectRatio="xMidYMid meet">
<metadata>
Created by potrace 1.16, written by Peter Selinger 2001-2019
</metadata>
<g transform="translate(0.000000,156.000000) scale(0.100000,-0.100000)"
fill="#000000" stroke="none">
<path d="M903 1541 c-134 -49 -295 -156 -350 -233 -47 -65 -67 -136 -61 -216
6 -77 25 -121 76 -174 l35 -37 -29 -6 c-312 -62 -464 -145 -536 -293 -32 -64
-33 -72 -33 -182 0 -105 2 -119 27 -165 55 -105 179 -189 324 -220 126 -27
298 -15 396 27 53 23 131 101 175 175 64 110 99 278 74 355 -20 62 -52 82
-136 86 -42 3 -90 -1 -112 -8 -93 -31 -173 -118 -214 -235 -22 -63 -39 -231
-23 -224 5 2 55 34 110 71 l100 67 23 73 c42 131 140 199 180 126 13 -22 13
-37 4 -94 -25 -144 -127 -280 -259 -345 -64 -32 -75 -34 -169 -34 -84 0 -107
4 -141 22 -89 48 -119 113 -111 242 6 99 31 176 89 268 63 100 140 157 275
204 51 17 54 17 96 -1 65 -29 155 -50 214 -50 60 0 83 21 83 77 0 29 -4 33
-37 42 -21 5 -86 12 -146 16 -59 4 -110 12 -114 18 -16 26 -15 155 2 213 55
194 228 364 370 364 28 0 55 -3 58 -6 4 -4 -15 -20 -41 -36 -95 -60 -206 -187
-247 -284 -47 -111 -33 -203 35 -223 50 -15 76 -14 140 5 77 23 176 123 228
230 34 73 37 86 38 174 1 91 2 94 25 101 59 15 229 -56 506 -213 79 -44 164
-86 189 -94 61 -18 233 -18 302 0 71 19 167 65 242 116 81 55 196 164 232 219
27 44 37 91 19 91 -5 0 -56 -36 -114 -79 -189 -142 -276 -179 -443 -188 -126
-7 -144 -1 -309 97 -160 96 -234 133 -304 154 -78 23 -218 21 -309 -4 l-72
-20 -43 22 c-60 32 -238 36 -314 9z m311 -243 c-11 -91 -91 -224 -166 -278
-35 -26 -50 -30 -88 -28 -42 3 -45 5 -48 33 -4 42 66 180 126 246 26 29 74 70
107 91 l60 39 8 -28 c4 -15 5 -49 1 -75z"/>
<path d="M5025 1545 c-78 -22 -222 -97 -311 -164 -281 -209 -544 -580 -620
-877 -32 -127 -31 -274 3 -340 53 -101 142 -138 312 -132 100 3 113 6 182 40
178 88 337 296 370 483 21 121 0 201 -62 232 -42 22 -157 16 -214 -11 -92 -43
-170 -151 -200 -278 -17 -72 -20 -158 -5 -158 5 0 53 29 107 64 l99 65 23 73
c18 57 33 82 67 116 52 49 85 55 110 17 33 -51 4 -169 -71 -285 -91 -140 -210
-223 -320 -224 -115 -2 -161 65 -153 221 6 106 28 174 112 348 139 285 367
571 542 678 67 40 172 72 205 62 19 -6 15 -11 -28 -35 -27 -16 -84 -65 -126
-110 -124 -132 -183 -280 -143 -359 20 -38 50 -51 120 -51 72 0 142 37 210
111 93 100 141 232 129 356 -5 48 -4 52 18 55 73 11 203 -42 457 -184 238
-134 254 -141 377 -142 192 -2 335 59 520 220 108 94 178 199 146 218 -6 4
-65 -34 -132 -83 -186 -139 -288 -179 -466 -183 -102 -2 -112 2 -343 141 -183
111 -261 135 -408 129 -72 -4 -123 -11 -157 -25 l-50 -19 -40 23 c-33 19 -54
23 -125 22 -47 0 -107 -7 -135 -14z m240 -295 c-20 -59 -76 -155 -117 -197
-59 -61 -158 -80 -173 -34 -9 28 47 156 98 222 49 66 97 109 158 144 l44 25 3
-56 c2 -32 -4 -76 -13 -104z"/>
<path d="M8560 1544 c-381 -99 -870 -671 -946 -1105 -34 -198 3 -315 119 -377
49 -25 60 -27 182 -27 129 0 131 0 205 36 93 45 164 103 234 191 98 123 146
245 146 376 0 126 -36 162 -163 162 -129 0 -214 -61 -283 -205 -35 -73 -61
-198 -50 -241 6 -24 8 -23 103 41 53 36 99 65 103 65 3 0 17 33 29 73 19 57
34 82 71 120 26 26 56 47 67 47 69 0 71 -120 4 -256 -80 -161 -224 -276 -351
-278 -67 -1 -101 18 -135 75 -32 54 -28 189 9 299 88 267 322 623 523 795 114
98 242 156 309 139 23 -6 22 -7 -18 -27 -24 -11 -79 -57 -123 -102 -89 -90
-148 -189 -166 -278 -10 -47 -9 -58 9 -94 16 -31 29 -42 53 -47 121 -24 226
26 314 148 68 96 88 155 90 265 1 87 3 95 23 102 51 19 221 -51 492 -203 80
-45 146 -83 148 -84 2 -1 -30 -48 -71 -105 -114 -161 -211 -328 -277 -479
l-33 -75 -77 -3 -78 -3 19 62 c34 108 19 192 -38 218 -38 18 -137 13 -195 -9
-181 -68 -395 -364 -413 -572 -10 -123 37 -178 152 -178 39 0 76 6 96 16 98
50 223 182 310 329 l42 70 55 2 c30 2 68 7 84 13 25 8 27 8 21 -8 -25 -59 -57
-188 -62 -253 -7 -88 9 -134 56 -162 42 -24 81 -21 132 12 44 28 166 150 226
226 l32 40 -9 -35 c-25 -89 3 -186 62 -216 34 -18 109 -18 151 0 18 7 47 29
64 49 l32 37 20 -45 c22 -50 44 -60 120 -53 61 6 123 47 219 146 73 76 137
183 130 218 -7 38 -34 22 -88 -52 -53 -73 -120 -134 -147 -134 -7 0 -13 2 -13
5 0 14 69 140 142 258 82 134 142 250 154 300 l6 27 -85 0 c-76 0 -88 -2 -100
-21 l-15 -21 -47 21 c-56 25 -88 26 -145 6 -105 -37 -269 -192 -371 -350 -40
-62 -60 -84 -76 -84 -14 -1 -55 -34 -111 -91 -50 -50 -97 -90 -106 -90 -34 0
-41 44 -19 133 35 141 49 161 190 278 216 178 419 392 532 558 23 33 50 62 61
66 59 19 253 189 301 264 29 44 38 91 19 91 -5 0 -47 -28 -92 -63 -46 -35 -97
-73 -114 -85 l-31 -21 5 47 c5 60 -17 83 -86 90 -98 9 -207 -43 -339 -162 -33
-31 -65 -56 -70 -56 -5 0 -70 36 -143 81 -242 146 -302 169 -444 169 -64 0
-113 -6 -163 -21 l-72 -21 -43 21 c-53 25 -172 28 -258 5z m1539 -108 c10 -11
9 -24 0 -55 -12 -39 -15 -42 -78 -62 -36 -11 -88 -23 -116 -26 l-50 -6 50 53
c88 92 166 130 194 96z m-1290 -146 c-24 -121 -132 -266 -217 -291 -89 -26
-104 25 -42 148 49 98 114 173 195 225 l60 39 7 -33 c4 -18 3 -58 -3 -88z
m1141 -156 c0 -29 -368 -418 -471 -499 -54 -42 -60 -45 -54 -24 14 48 117 232
202 364 l88 135 45 1 c25 1 74 7 110 14 36 7 68 13 73 14 4 0 7 -2 7 -5z m180
-424 c13 -8 8 -23 -29 -95 -57 -114 -209 -340 -259 -389 -113 -108 -88 76 35
261 46 69 156 189 198 215 35 21 35 21 55 8z m-1140 -36 c13 -33 -6 -136 -29
-165 -14 -18 -20 -19 -46 -9 -48 18 -85 59 -85 95 0 47 67 104 123 105 21 0
30 -6 37 -26z m-115 -220 c25 -9 45 -18 45 -20 0 -18 -86 -142 -130 -186 -77
-76 -160 -94 -160 -34 0 35 53 167 102 252 l40 72 30 -33 c16 -19 49 -41 73
-51z"/>
<path d="M2737 1036 c-65 -24 -77 -41 -77 -111 0 -34 5 -66 12 -73 7 -7 40
-12 80 -12 92 0 108 16 108 105 0 98 -33 123 -123 91z"/>
<path d="M3115 783 c-21 -32 -105 -123 -186 -202 -142 -137 -174 -181 -131
-181 9 0 71 50 137 110 l120 110 3 -38 c5 -49 -14 -202 -33 -277 -46 -175
-138 -267 -223 -224 l-27 13 27 4 c39 5 68 46 68 97 0 55 -30 85 -87 85 l-41
0 16 50 c17 53 10 76 -21 65 -8 -4 -39 -40 -67 -81 -67 -96 -164 -165 -145
-101 19 61 84 207 151 336 41 79 74 148 74 152 0 5 -49 9 -109 9 -96 0 -110
-2 -113 -17 -3 -14 -8 -11 -21 14 -43 80 -121 72 -269 -28 -31 -22 -62 -39
-67 -39 -6 0 -11 18 -11 39 0 77 -31 121 -86 121 -28 0 -46 -11 -104 -66 -117
-110 -191 -224 -147 -224 7 0 37 25 67 55 30 30 58 55 62 55 18 0 5 -53 -28
-117 -35 -65 -234 -482 -234 -490 0 -2 47 -2 105 -1 l106 3 62 140 c68 153
125 262 164 313 32 43 198 187 236 205 31 15 78 10 84 -10 2 -6 -10 -13 -28
-17 -38 -7 -85 -56 -94 -97 -13 -60 40 -98 97 -68 17 9 13 -3 -21 -62 -99
-174 -123 -247 -107 -332 10 -53 39 -77 94 -77 64 1 115 26 200 99 l71 61 11
-39 c24 -88 111 -135 242 -129 103 4 156 28 244 111 88 82 128 163 129 261 0
74 -8 94 -111 282 l-28 51 32 50 c41 63 41 83 3 83 -23 0 -35 -10 -66 -57z"/>
<path d="M6568 786 c-20 -7 -59 -28 -86 -45 -65 -42 -217 -199 -274 -285 -26
-38 -49 -63 -53 -57 -11 19 -46 -7 -147 -114 -104 -109 -173 -155 -235 -155
-27 0 -34 5 -39 26 -9 36 19 130 68 227 107 213 224 336 298 312 28 -9 25 -25
-4 -25 -45 0 -106 -71 -106 -125 0 -23 37 -55 65 -55 58 0 135 108 135 189 0
36 -6 49 -35 78 l-35 35 -83 -4 c-67 -4 -93 -10 -146 -37 -63 -32 -169 -128
-236 -214 -28 -36 -34 -38 -99 -44 -65 -6 -69 -5 -62 13 4 10 15 47 23 81 19
77 11 126 -27 165 -26 26 -35 28 -102 28 -95 0 -170 -34 -261 -120 -168 -157
-275 -365 -265 -516 3 -57 8 -69 36 -96 28 -29 39 -33 101 -36 52 -3 79 0 112
15 85 38 222 184 308 329 35 59 46 70 64 67 12 -2 41 0 65 5 39 9 43 8 36 -6
-64 -143 -85 -287 -50 -350 42 -79 177 -94 301 -33 74 37 165 122 239 223 47
64 71 84 47 39 -6 -11 -16 -44 -21 -72 -13 -68 2 -123 45 -166 30 -30 39 -33
91 -33 66 0 112 21 155 73 l26 30 12 -36 c16 -49 45 -67 104 -67 69 0 119 30
223 134 95 95 144 171 144 226 0 45 -23 37 -66 -22 -70 -99 -153 -172 -172
-153 -9 9 54 128 139 265 68 108 139 247 154 298 6 21 5 22 -74 22 -88 0 -111
-5 -111 -26 0 -19 -14 -18 -60 6 -45 23 -89 25 -142 6z m141 -80 c9 -10 3 -29
-25 -82 -87 -165 -243 -390 -291 -421 -24 -16 -26 -16 -38 0 -18 25 -1 106 40
187 61 120 192 279 260 314 37 19 40 19 54 2z m-1261 -18 c27 -27 0 -179 -34
-192 -24 -9 -92 31 -110 65 -13 26 -14 36 -3 61 23 56 115 98 147 66z m-150
-214 c12 -8 38 -21 58 -28 l36 -12 -64 -95 c-44 -65 -78 -104 -112 -127 -78
-52 -135 -37 -116 30 18 61 64 166 102 232 l40 68 18 -26 c9 -15 27 -34 38
-42z"/>
<path d="M1260 781 l-65 -6 -112 -245 c-136 -298 -148 -333 -133 -391 7 -24
27 -58 45 -76 30 -30 39 -33 91 -33 67 0 130 31 161 80 l20 31 12 -40 c15 -52
43 -71 104 -71 69 0 119 30 223 134 95 95 144 171 144 226 0 45 -23 37 -66
-22 -69 -98 -153 -172 -172 -153 -9 9 39 100 167 314 66 109 127 213 136 231
l17 33 -77 -6 c-43 -4 -93 -7 -111 -7 -31 0 -34 -4 -94 -117 -75 -141 -198
-341 -247 -401 -75 -92 -113 -91 -113 4 0 93 76 268 192 442 26 40 48 75 48
77 0 6 -79 4 -170 -4z"/>
<path d="M3542 443 c-5 -16 -13 -36 -17 -45 -7 -17 7 -18 208 -18 l215 0 15
45 16 45 -214 0 -213 0 -10 -27z"/>
</g>
</svg>
